# xmcd
#
# Track frame offsets:
#	150
#	23505
#	46437
#	62047
#
# Disc length: 1136 seconds
#
# Revision: 1
# Processed by: cddbd v1.5PL3 Copyright (c) Steve Scherf et al.
# Submitted via: CDex 1.50Beta5
#
DISCID=2a046e04
DTITLE=RKS - melody
DYEAR=2000
DGENRE=New Age
TTITLE0=melody
TTITLE1=自由な人
TTITLE2=melody(violin version)
TTITLE3=melody(for you)
EXTD=
EXTT0=
EXTT1=
EXTT2=
EXTT3=
PLAYORDER=
